<svg height="512pt" viewBox="0 -61 512.001 512" width="512pt" xmlns="http://www.w3.org/2000/svg"><path d="m509.300781 216.300781c-4.800781-6.300781-114.699219-156.300781-253.300781-156.300781s-248.5 150-253.296875 156.300781c-3.605469 5.097657-3.605469 12.300781 0 17.398438 4.796875 6.300781 114.699219 156.300781 253.296875 156.300781s248.5-150 253.300781-156.300781c3.601563-5.097657 3.601563-12.296875 0-17.398438zm0 0" fill="#ede9e8"/><path d="m509.300781 216.300781c3.601563 5.097657 3.601563 12.300781 0 17.398438-4.800781 6.300781-114.699219 156.300781-253.300781 156.300781v-330c138.601562 0 248.5 150 253.300781 156.300781zm0 0" fill="#dfd7d5"/><path d="m256 120c-57.898438 0-105 47.101562-105 105s47.101562 105 105 105 105-47.101562 105-105-47.101562-105-105-105zm0 0" fill="#3aaaff"/><path d="m361 225c0 57.898438-47.101562 105-105 105v-210c57.898438 0 105 47.101562 105 105zm0 0" fill="#0095ff"/><path d="m256 180c-24.902344 0-45 20.097656-45 45s20.097656 45 45 45 45-20.097656 45-45-20.097656-45-45-45zm0 0" fill="#53433f"/><path d="m301 225c0 24.902344-20.097656 45-45 45v-90c24.902344 0 45 20.101562 45 45zm0 0" fill="#3e322e"/><path d="m507.5 144.300781c-5.699219 6-15.296875 6-21 0-51.898438-52.199219-134.800781-114.300781-230.5-114.300781s-178.597656 62.101562-230.5 114.300781c-5.699219 6-15.296875 6-21 0-6-5.699219-6-15.300781 0-21 55.800781-56.402343 145.601562-123.300781 251.5-123.300781s195.699219 66.898438 251.5 123.300781c6 5.699219 6 15.300781 0 21zm0 0" fill="#d2c5c2"/><path d="m486.5 144.300781c-51.898438-52.199219-134.800781-114.300781-230.5-114.300781v-30c105.902344 0 195.699219 66.898438 251.5 123.300781 6 5.699219 6 15.300781 0 21-5.699219 6-15.300781 6-21 0zm0 0" fill="#c4b3af"/><path d="m256 180c-8.402344 0-15 6.597656-15 15s6.597656 15 15 15 15-6.597656 15-15-6.597656-15-15-15zm0 0" fill="#ede9e8"/><path d="m271 195c0 8.402344-6.597656 15-15 15v-30c8.402344 0 15 6.601562 15 15zm0 0" fill="#dfd7d5"/></svg>